<?xml version="1.0" standalone="no"?>
<!DOCTYPE svg PUBLIC "-//W3C//DTD SVG 20010904//EN"
 "http://www.w3.org/TR/2001/REC-SVG-20010904/DTD/svg10.dtd">
<svg version="1.0" xmlns="http://www.w3.org/2000/svg"
 width="300.000000pt" height="300.000000pt" viewBox="0 0 300.000000 300.000000"
 preserveAspectRatio="xMidYMid meet">
<metadata>
Created by potrace 1.10, written by Peter Selinger 2001-2011
</metadata>
<g transform="translate(0.000000,300.000000) scale(0.100000,-0.100000)"
fill="#000000" stroke="none">
<path d="M1486 2523 c-3 -104 -9 -275 -13 -380 l-6 -193 33 0 33 0 -7 273 c-8
329 -16 487 -26 487 -4 0 -10 -84 -14 -187z"/>
<path d="M1695 2688 c-2 -7 -20 -105 -40 -218 -19 -113 -42 -225 -50 -250 -13
-41 -55 -248 -55 -271 0 -5 14 -9 30 -9 17 0 30 1 30 3 0 2 9 52 20 112 11 60
20 129 20 154 0 26 16 136 35 246 19 110 35 210 35 223 0 23 -18 31 -25 10z"/>
<path d="M1280 2675 c0 -9 14 -98 30 -197 17 -99 31 -197 31 -217 1 -31 28
-211 45 -293 4 -21 11 -28 30 -28 14 0 27 6 30 13 6 15 -42 272 -56 302 -5 11
-27 112 -47 224 -23 126 -43 206 -50 209 -7 2 -13 -4 -13 -13z"/>
<path d="M1890 2604 c-11 -25 -33 -83 -49 -127 -62 -176 -104 -283 -116 -297
-20 -24 -97 -242 -88 -250 4 -4 17 -10 28 -14 18 -5 24 6 57 97 21 56 42 122
47 147 11 48 65 210 125 374 39 107 41 116 26 116 -6 0 -20 -21 -30 -46z"/>
<path d="M1085 2621 c-3 -6 24 -93 60 -196 36 -102 65 -192 65 -199 0 -13 98
-307 105 -314 3 -3 43 15 53 24 7 5 -97 280 -126 335 -15 30 -52 123 -82 206
-30 84 -58 153 -62 153 -4 0 -9 -4 -13 -9z"/>
<path d="M1989 2373 c-61 -104 -126 -208 -144 -233 -17 -25 -49 -74 -70 -110
-21 -36 -47 -79 -57 -97 l-19 -32 28 -14 28 -15 62 111 c35 62 63 118 63 125
0 7 54 107 120 222 66 114 120 213 120 219 0 33 -30 -7 -131 -176z"/>
<path d="M905 2520 c-7 -11 10 -45 94 -190 34 -58 61 -110 61 -117 0 -10 63
-127 162 -299 23 -41 24 -42 51 -27 l28 14 -32 57 c-78 137 -160 271 -169 277
-6 3 -49 71 -96 151 -47 79 -87 144 -89 144 -2 0 -7 -4 -10 -10z"/>
<path d="M2156 2300 c-70 -82 -165 -189 -210 -237 -46 -49 -104 -113 -129
-144 l-46 -56 22 -21 22 -21 56 67 c31 37 87 110 126 162 38 52 122 158 186
235 107 127 132 165 109 165 -5 0 -66 -67 -136 -150z"/>
<path d="M745 2390 c-4 -6 29 -53 72 -106 43 -52 87 -110 98 -129 11 -19 76
-101 144 -184 124 -148 125 -149 147 -133 13 10 23 19 24 22 0 11 -181 221
-285 330 -60 64 -126 137 -145 163 -37 48 -45 54 -55 37z"/>
<path d="M2292 2180 c-79 -66 -173 -141 -210 -167 -37 -26 -105 -79 -151 -117
-47 -39 -89 -74 -94 -78 -6 -3 -2 -17 10 -31 l20 -26 89 76 c49 42 123 108
164 148 41 39 135 122 208 184 114 97 144 132 114 131 -4 0 -71 -54 -150 -120z"/>
<path d="M604 2248 c-4 -6 11 -27 37 -51 24 -22 94 -86 154 -143 111 -104 324
-284 336 -284 3 0 14 9 23 19 17 19 17 21 -20 53 -86 76 -279 231 -334 268
-32 22 -88 65 -124 95 -43 37 -67 51 -72 43z"/>
<path d="M2445 2059 c-66 -40 -178 -101 -250 -137 -148 -74 -315 -169 -315
-180 1 -9 26 -42 33 -42 9 0 199 111 246 144 24 17 130 83 235 146 174 105
220 140 184 140 -7 0 -67 -32 -133 -71z"/>
<path d="M480 2078 c0 -7 19 -24 43 -37 23 -13 89 -55 147 -94 106 -71 405
-247 419 -247 4 0 13 11 19 25 11 23 8 26 -81 78 -206 120 -241 140 -322 177
-47 22 -113 55 -146 75 -65 38 -79 42 -79 23z"/>
<path d="M2535 1888 c-71 -27 -184 -64 -250 -84 -66 -19 -174 -54 -240 -78
-110 -40 -120 -46 -117 -67 1 -13 6 -27 10 -30 8 -8 303 99 343 123 13 8 111
48 217 88 117 45 192 79 192 87 0 19 -10 16 -155 -39z"/>
<path d="M380 1901 c0 -12 10 -21 26 -25 14 -4 89 -34 167 -68 191 -82 480
-188 489 -180 4 4 9 18 10 31 3 22 -9 28 -173 87 -97 35 -210 72 -251 83 -42
11 -119 36 -172 55 -87 32 -96 33 -96 17z"/>
<path d="M2565 1699 c-88 -15 -177 -28 -197 -29 -33 0 -388 -56 -414 -64 -6
-2 -9 -17 -6 -34 l4 -29 201 35 c111 19 204 38 207 42 3 4 82 21 175 39 94 17
182 34 198 37 29 6 38 35 10 33 -10 -1 -90 -14 -178 -30z"/>
<path d="M300 1706 c0 -8 28 -19 83 -30 45 -10 138 -31 207 -47 69 -15 193
-40 275 -54 83 -14 157 -28 166 -31 12 -3 18 3 21 26 3 21 0 31 -11 35 -44 13
-365 66 -454 75 -56 5 -140 16 -187 25 -103 18 -100 18 -100 1z"/>
<path d="M620 1520 c-36 -4 -136 -9 -222 -11 -105 -3 -158 -8 -158 -15 0 -11
379 -27 665 -28 l140 -1 0 30 0 30 -180 2 c-99 0 -209 -2 -245 -7z"/>
<path d="M1953 1498 l3 -33 139 1 c77 0 265 4 418 9 214 6 277 11 277 21 0 10
-48 14 -210 18 -115 3 -304 9 -420 12 l-210 5 3 -33z"/>
<path d="M865 1415 c-99 -18 -236 -46 -305 -63 -69 -16 -168 -38 -220 -47
-122 -21 -130 -23 -130 -41 0 -12 7 -14 28 -10 86 18 330 57 356 58 63 0 445
64 458 77 4 3 4 18 0 32 l-7 26 -180 -32z"/>
<path d="M1947 1414 c-2 -14 0 -27 7 -30 27 -9 300 -56 386 -65 91 -10 370
-54 418 -66 17 -4 22 -1 22 16 0 14 -6 21 -19 21 -32 0 -324 59 -346 70 -19 9
-413 80 -446 80 -10 0 -19 -11 -22 -26z"/>
<path d="M870 1301 c-102 -38 -210 -81 -240 -96 -30 -16 -136 -59 -235 -96
-109 -41 -180 -73 -180 -81 0 -17 1 -17 195 52 91 32 199 68 240 80 76 22 338
112 399 137 27 12 32 18 27 36 -3 12 -6 25 -6 30 0 10 1 11 -200 -62z"/>
<path d="M1929 1342 c-5 -14 -6 -29 -2 -33 14 -13 305 -116 446 -158 75 -23
181 -57 233 -76 105 -38 124 -42 124 -22 0 6 -62 35 -138 64 -75 28 -173 67
-217 87 -44 19 -160 64 -258 100 l-178 64 -10 -26z"/>
<path d="M938 1206 c-81 -46 -193 -114 -250 -152 -57 -38 -177 -111 -267 -164
-149 -86 -179 -109 -154 -117 5 -2 80 38 168 88 88 50 205 113 260 141 78 39
403 219 424 235 6 4 -21 53 -28 53 -4 0 -72 -38 -153 -84z"/>
<path d="M1891 1264 c-6 -15 -10 -28 -9 -29 28 -20 343 -194 461 -254 86 -44
182 -96 211 -115 44 -28 57 -32 66 -21 8 10 -8 24 -77 65 -48 29 -122 76 -163
105 -70 48 -425 256 -461 270 -10 4 -19 -3 -28 -21z"/>
<path d="M996 1113 c-75 -63 -179 -153 -229 -201 -51 -48 -163 -147 -249 -221
-87 -73 -158 -137 -158 -142 0 -25 30 -6 165 107 83 69 193 157 245 197 52 39
155 120 229 181 73 61 143 118 154 127 20 17 20 17 1 42 l-20 24 -138 -114z"/>
<path d="M1845 1200 c-10 -11 -16 -22 -14 -24 42 -40 362 -301 409 -334 36
-25 102 -77 148 -114 72 -60 102 -75 102 -50 0 4 -47 47 -105 96 -58 49 -105
92 -105 96 0 10 -399 350 -412 350 -3 0 -13 -9 -23 -20z"/>
<path d="M1175 1156 c-6 -8 -70 -85 -144 -172 -73 -88 -151 -185 -173 -218
-22 -32 -108 -139 -190 -238 -113 -136 -145 -180 -133 -184 9 -4 17 -5 19 -3
36 51 288 342 335 389 36 35 304 346 328 380 10 14 9 21 -10 38 -18 17 -24 19
-32 8z"/>
<path d="M1792 1147 l-21 -22 142 -170 c78 -94 183 -213 232 -265 50 -52 107
-115 128 -139 27 -33 40 -42 48 -34 8 8 -5 30 -50 83 -34 39 -73 90 -88 113
-33 53 -150 197 -363 450 -3 4 -16 -3 -28 -16z"/>
<path d="M1727 1104 l-27 -15 24 -42 c142 -247 259 -443 278 -466 13 -15 46
-66 73 -114 28 -48 56 -87 63 -87 19 0 15 14 -23 79 -20 33 -53 98 -74 145
-28 60 -212 392 -285 513 -1 1 -13 -5 -29 -13z"/>
<path d="M1132 918 c-60 -106 -132 -238 -160 -293 -27 -55 -88 -167 -136 -248
-47 -82 -86 -153 -86 -158 0 -36 40 17 135 178 61 103 119 199 131 213 19 23
128 205 237 394 41 73 44 81 29 93 -9 7 -22 13 -28 13 -7 0 -61 -87 -122 -192z"/>
<path d="M1655 1068 c-11 -6 -21 -12 -23 -13 -6 -5 188 -527 211 -567 14 -24
37 -79 52 -123 31 -88 38 -100 53 -91 6 4 -3 44 -25 103 -19 54 -38 118 -43
144 -10 50 -191 559 -200 559 -3 0 -14 -6 -25 -12z"/>
<path d="M1260 928 c-28 -79 -72 -206 -97 -283 -25 -77 -73 -218 -105 -313
-43 -123 -57 -177 -49 -185 11 -11 7 -22 83 183 27 74 60 153 73 175 12 22 64
154 115 294 73 201 89 255 78 262 -35 23 -45 10 -98 -133z"/>
<path d="M1386 1018 c-31 -149 -88 -498 -92 -558 -2 -41 -15 -131 -28 -200
-16 -88 -20 -127 -12 -132 6 -4 12 -5 14 -3 2 2 17 72 33 157 16 84 34 162 39
173 5 11 21 81 34 155 75 409 77 423 64 432 -27 17 -45 8 -52 -24z"/>
<path d="M1567 1043 c-14 -4 -16 -11 -12 -36 51 -295 97 -530 108 -562 8 -22
23 -89 33 -148 12 -72 22 -107 31 -107 17 0 16 27 -2 124 -8 44 -16 98 -16
120 -1 40 -53 372 -84 531 -8 44 -15 81 -15 83 0 3 -21 1 -43 -5z"/>
<path d="M1471 753 c2 -393 11 -605 26 -610 15 -5 21 128 29 565 l6 332 -31 0
-31 0 1 -287z"/>
</g>
</svg>
